<svg xmlns="http://www.w3.org/2000/svg" viewBox="0 0 1628.06 1758.22" fill="#1A1D1B" role="img" aria-label="Rubicon Workflows mark"><path d="M 1477.03 1251.11 C 1477.03 1356.85, 1430.93 1451.82, 1357.73 1517.02 C 1347.74 1525.91, 1332.18 1523.75, 1325.14 1512.39 L 1007.14 999.44 L 1006.49 999.18 C 1295.96 850.21, 1152.95 454.5, 899.27 454.5 L 464.14 454.5 L 516.87 507.53 L 516.87 1291.5 L 455.87 1368.16 L 667.87 1293.94 L 667.87 600.83 L 852.36 600.83 C 933.37 600.83, 999.03 669.11, 999.03 753.33 C 999.03 818.87, 959.27 874.75, 903.45 896.32 C 841.4 911.68, 770.03 904.11, 770.03 904.11 L 1152.27 1574.8 C 1160.27 1588.82, 1150.49 1606.27, 1134.36 1606.86 C 1129.94 1607.03, 1125.49 1607.11, 1121.03 1607.11 L 507.03 1607.11 C 310.42 1607.11, 151.03 1447.72, 151.03 1251.11 L 151.03 507.11 C 151.03 310.5, 310.42 151.11, 507.03 151.11 L 1121.03 151.11 C 1317.65 151.11, 1477.03 310.5, 1477.03 507.11 L 1477.03 1251.11 M 1248.23 0 L 379.84 0 C 170.06 0, 0 170.06, 0 379.83 L 0 1378.39 C 0 1588.16, 170.06 1758.22, 379.84 1758.22 L 1248.23 1758.22 C 1458 1758.22, 1628.06 1588.16, 1628.06 1378.39 L 1628.06 379.83 C 1628.06 170.06, 1458 0, 1248.23 0 Z"/></svg>